<?xml version="1.0" encoding="utf-8"?>
<!-- Generator: Adobe Illustrator 25.4.1, SVG Export Plug-In . SVG Version: 6.00 Build 0)  -->
<svg version="1.1" id="Predeterminado" xmlns="http://www.w3.org/2000/svg" xmlns:xlink="http://www.w3.org/1999/xlink" x="0px"
	 y="0px" width="50" viewBox="0 0 142.57 201.63" style="enable-background:new 0 0 142.57 201.63;" xml:space="preserve">
<style type="text/css">
	.st0{fill:none;stroke:#3e3e3e;stroke-linecap:round;stroke-linejoin:round;}
	.st1{fill:#3300CC;}
</style>
<path class="st0" d="M23.79,148.31c12.6,12.6,29.68,19.67,47.5,19.67c17.82,0,34.9-7.08,47.5-19.67
	c-7.92-7.92-15.83-15.83-23.75-23.75c-6.3,6.3-14.84,9.84-23.75,9.84c-8.91,0-17.45-3.54-23.75-9.84
	C39.62,132.48,31.7,140.39,23.79,148.31z"/>
<path class="st0" d="M118.78,148.31c-12.6,12.6-29.68,19.67-47.5,19.67c-17.82,0-34.9-7.08-47.5-19.67
	C15.86,156.24,7.93,164.17,0,172.1c18.91,18.91,44.55,29.53,71.29,29.53c26.74,0,52.38-10.62,71.29-29.53
	C134.64,164.17,126.71,156.24,118.78,148.31z"/>
<path class="st0" d="M23.79,53.32c12.6-12.6,29.68-19.67,47.5-19.67c17.82,0,34.9,7.08,47.5,19.67
	c7.93-7.93,15.86-15.86,23.79-23.79C123.67,10.62,98.02,0,71.29,0C44.55,0,18.91,10.62,0,29.53C7.93,37.46,15.86,45.39,23.79,53.32z
	"/>
<path class="st0" d="M23.79,53.32C11.19,65.91,4.11,83,4.11,100.81c0,17.82,7.08,34.9,19.67,47.5c7.92-7.92,15.83-15.83,23.75-23.75
	c-6.3-6.3-9.84-14.84-9.84-23.75c0-8.91,3.54-17.45,9.84-23.75C39.62,69.15,31.7,61.23,23.79,53.32z"/>
<path class="st0" d="M95.03,77.06c6.3,6.3,9.84,14.84,9.84,23.75c0,8.91-3.54,17.45-9.84,23.75c7.92,7.92,15.83,15.83,23.75,23.75
	c12.6-12.6,19.67-29.68,19.67-47.5c0-17.82-7.08-34.9-19.67-47.5C110.87,61.23,102.95,69.15,95.03,77.06z"/>
<path class="st0" d="M47.54,77.06c6.3-6.3,14.84-9.84,23.75-9.84c8.91,0,17.45,3.54,23.75,9.84c7.92-7.92,15.83-15.83,23.75-23.75
	c-12.6-12.6-29.68-19.67-47.5-19.67c-17.82,0-34.9,7.08-47.5,19.67C31.7,61.23,39.62,69.15,47.54,77.06z"/>
<g>
	<path class="st1" d="M83.39,104.08L97.9,127.7c1.45,2.38,0.73,5.6-1.76,7.15c-0.83,0.52-1.76,0.73-2.69,0.73
		c-1.76,0-3.42-0.93-4.46-2.49l-17.2-28.18H61.21v25.59c0,2.9-2.38,5.08-5.18,5.08c-2.9,0-5.18-2.18-5.18-5.08V68.53
		c0-2.8,2.38-5.18,5.28-5.18c0.1,0,0.1,0,0.21,0h21.76c10.47,0,20.52,8.91,20.62,20.52C98.73,93.09,92.51,100.76,83.39,104.08z
		 M88.47,83.97c-0.1-5.8-4.87-10.26-10.78-10.26H61.21v20.83h16.48C83.6,94.54,88.36,89.88,88.47,83.97z"/>
</g>
</svg>
