<?xml version="1.0" encoding="utf-8"?>
<!-- Generator: Adobe Illustrator 25.4.1, SVG Export Plug-In . SVG Version: 6.00 Build 0)  -->
<svg version="1.1" id="Predeterminado" xmlns="http://www.w3.org/2000/svg" xmlns:xlink="http://www.w3.org/1999/xlink" x="0px"
	 y="0px" width="50" viewBox="0 0 142.57 201.63" style="enable-background:new 0 0 142.57 201.63;" xml:space="preserve">
<style type="text/css">
	.st0{fill:none;stroke:#3e3e3e;stroke-linecap:round;stroke-linejoin:round;}
	.st1{fill:none;stroke:#00CC00;stroke-width:2;stroke-linecap:round;stroke-linejoin:round;}
</style>
<path class="st0" d="M23.79,148.31c12.6,12.6,29.68,19.67,47.5,19.67c17.82,0,34.9-7.08,47.5-19.67
	c-7.92-7.92-15.83-15.83-23.75-23.75c-6.3,6.3-14.84,9.84-23.75,9.84c-8.91,0-17.45-3.54-23.75-9.84
	C39.62,132.48,31.7,140.39,23.79,148.31z"/>
<path class="st0" d="M118.78,148.31c-12.6,12.6-29.68,19.67-47.5,19.67c-17.82,0-34.9-7.08-47.5-19.67
	C15.86,156.24,7.93,164.17,0,172.1c18.91,18.91,44.55,29.53,71.29,29.53c26.74,0,52.38-10.62,71.29-29.53
	C134.64,164.17,126.71,156.24,118.78,148.31z"/>
<path class="st0" d="M23.79,53.32c12.6-12.6,29.68-19.67,47.5-19.67c17.82,0,34.9,7.08,47.5,19.67
	c7.93-7.93,15.86-15.86,23.79-23.79C123.67,10.62,98.02,0,71.29,0C44.55,0,18.91,10.62,0,29.53C7.93,37.46,15.86,45.39,23.79,53.32z
	"/>
<path class="st0" d="M23.79,53.32C11.19,65.91,4.11,83,4.11,100.81c0,17.82,7.08,34.9,19.67,47.5c7.92-7.92,15.83-15.83,23.75-23.75
	c-6.3-6.3-9.84-14.84-9.84-23.75c0-8.91,3.54-17.45,9.84-23.75C39.62,69.15,31.7,61.23,23.79,53.32z"/>
<path class="st0" d="M95.03,77.06c6.3,6.3,9.84,14.84,9.84,23.75c0,8.91-3.54,17.45-9.84,23.75c7.92,7.92,15.83,15.83,23.75,23.75
	c12.6-12.6,19.67-29.68,19.67-47.5c0-17.82-7.08-34.9-19.67-47.5C110.87,61.23,102.95,69.15,95.03,77.06z"/>
<path class="st0" d="M104.87,100.81c0-4.24-0.8-8.42-2.36-12.36c-1.69-4.27-4.23-8.14-7.48-11.39c-3.24-3.25-7.12-5.79-11.39-7.48
	c-3.94-1.56-8.13-2.36-12.36-2.36c-4.24,0-8.42,0.8-12.36,2.36c-4.27,1.69-8.14,4.23-11.39,7.48c-3.24,3.24-5.79,7.12-7.48,11.39
	c-1.56,3.94-2.36,8.13-2.36,12.36c0,4.24,0.8,8.42,2.36,12.36c1.69,4.27,4.23,8.14,7.48,11.39c3.24,3.25,7.12,5.79,11.39,7.48
	c3.94,1.56,8.13,2.36,12.36,2.36c4.24,0,8.42-0.8,12.36-2.36c4.27-1.69,8.14-4.23,11.39-7.48c3.25-3.24,5.79-7.12,7.48-11.39
	C104.07,109.24,104.87,105.05,104.87,100.81z"/>
<path class="st0" d="M47.54,77.06c6.3-6.3,14.84-9.84,23.75-9.84c8.91,0,17.45,3.54,23.75,9.84c7.92-7.92,15.83-15.83,23.75-23.75
	c-12.6-12.6-29.68-19.67-47.5-19.67c-17.82,0-34.9,7.08-47.5,19.67C31.7,61.23,39.62,69.15,47.54,77.06z"/>
<line class="st1" x1="8.46" y1="77.06" x2="134.12" y2="77.06"/>
<line class="st1" x1="8.46" y1="124.56" x2="134.12" y2="124.56"/>
</svg>
