<?xml version="1.0" encoding="utf-8"?>
<!-- Generator: Adobe Illustrator 25.4.1, SVG Export Plug-In . SVG Version: 6.00 Build 0)  -->
<svg version="1.1" id="Predeterminado" xmlns="http://www.w3.org/2000/svg" xmlns:xlink="http://www.w3.org/1999/xlink" x="0px"
	 y="0px" viewBox="0 0 142.57 201.63" style="enable-background:new 0 0 142.57 201.63;" xml:space="preserve">
<style type="text/css">
	.st0{fill:#0000CC;stroke:#EEEEEE;stroke-linecap:round;stroke-linejoin:round;}
</style>
<path class="st0" d="M104.87,100.81c0-4.24-0.8-8.42-2.36-12.36c-1.69-4.27-4.23-8.14-7.48-11.39c-3.24-3.25-7.12-5.79-11.39-7.48
	c-3.94-1.56-8.13-2.36-12.36-2.36c-4.24,0-8.42,0.8-12.36,2.36c-4.27,1.69-8.14,4.23-11.39,7.48c-3.24,3.24-5.79,7.12-7.48,11.39
	c-1.56,3.94-2.36,8.13-2.36,12.36c0,4.24,0.8,8.42,2.36,12.36c1.69,4.27,4.23,8.14,7.48,11.39c3.24,3.25,7.12,5.79,11.39,7.48
	c3.94,1.56,8.13,2.36,12.36,2.36c4.24,0,8.42-0.8,12.36-2.36c4.27-1.69,8.14-4.23,11.39-7.48c3.25-3.24,5.79-7.12,7.48-11.39
	C104.07,109.24,104.87,105.05,104.87,100.81z"/>
</svg>
