<?xml version="1.0" encoding="UTF-8"?>
<!DOCTYPE svg PUBLIC "-//W3C//DTD SVG 1.1//EN" "http://www.w3.org/Graphics/SVG/1.1/DTD/svg11.dtd">
<!-- Creator: CorelDRAW 2018 (64 Bit) -->
<svg xmlns="http://www.w3.org/2000/svg" xml:space="preserve" width="1124px" height="1177px" version="1.1" style="shape-rendering:geometricPrecision; text-rendering:geometricPrecision; image-rendering:optimizeQuality; fill-rule:evenodd; clip-rule:evenodd"
viewBox="0 0 843.52 883.19"
 xmlns:xlink="http://www.w3.org/1999/xlink">
 <defs>
  <style type="text/css">
   <![CDATA[
    .str0 {stroke:#B0B1B1;stroke-width:0.75;stroke-linecap:round;stroke-linejoin:round;stroke-miterlimit:22.9256}
    .fil0 {fill:#D9DADA;fill-rule:nonzero}
   ]]>
  </style>
 </defs>
 <g id="Capa_x0020_1">
  <metadata id="CorelCorpID_0Corel-Layer"/>
  <path class="fil0 str0" d="M124.31 789.9l-36.94 36.94 12.09 22.69 -33.29 33.28 -65.79 -145.23 35.68 -35.68 145.06 65.97 -34.14 34.14 -22.67 -12.11zm-29.74 -15.94l-49.44 -26.41 26.35 49.5 23.09 -23.09zm-8.38 -122.19l30.43 -30.44 97.83 18.7 -58.26 -58.26 30.8 -30.8 105.52 105.51 -30.8 30.8 -97.29 -18.59 57.94 57.94 -30.65 30.65 -105.52 -105.51zm191.14 -191.14l32.57 -32.57 62.85 62.85c6.21,6.22 11.12,13.09 14.71,20.56 3.61,7.49 5.4,15.38 5.4,23.68 0.01,8.3 -1.44,15.55 -4.29,21.78 -4.01,8.67 -10.44,17.47 -19.31,26.33 -5.13,5.14 -11.1,10.37 -17.88,15.72 -6.78,5.36 -13.29,9.02 -19.5,10.96 -6.22,1.94 -12.97,2.65 -20.26,2.09 -7.32,-0.54 -13.68,-2.29 -19.11,-5.21 -8.72,-4.69 -15.67,-9.63 -20.85,-14.81l-62.86 -62.85 32.57 -32.57 64.35 64.35c5.75,5.75 11.84,8.64 18.23,8.69 6.43,0.05 12.47,-2.75 18.12,-8.4 5.58,-5.57 8.38,-11.57 8.38,-17.95 0,-6.34 -2.93,-12.45 -8.77,-18.3l-64.35 -64.35zm54.08 -54.08l32.57 -32.57 79.58 79.58 50.99 -50.99 25.93 25.93 -83.55 83.56 -105.52 -105.51zm251.34 -75.09l-36.94 36.94 12.08 22.7 -33.28 33.28 -65.8 -145.23 35.69 -35.69 145.06 65.97 -34.14 34.14 -22.67 -12.11zm-29.75 -15.94l-49.44 -26.4 26.36 49.49 23.08 -23.09zm-8.22 -122.34l48.46 -48.46c9.53,-9.53 18.56,-15.96 27.01,-19.25 8.48,-3.27 17.05,-4.43 25.74,-3.44 8.7,1.03 17.1,3.88 25.25,8.59 8.18,4.69 15.84,10.64 23.04,17.84 11.27,11.27 18.74,21.29 22.38,30.08 3.66,8.77 5.3,17.54 4.93,26.31 -0.37,8.77 -2.45,16.45 -6.28,23.08 -5.24,9.07 -10.76,16.51 -16.56,22.31l-48.46 48.46 -105.51 -105.52zm56.44 -8.69l57.62 57.62 8.01 -8.01c6.82,-6.83 10.93,-12.45 12.33,-16.85 1.35,-4.4 0.98,-9.28 -1.13,-14.69 -2.14,-5.42 -7.42,-12.33 -15.87,-20.78 -11.18,-11.17 -20.63,-16.99 -28.42,-17.46 -7.78,-0.47 -15.91,3.54 -24.39,12.01l-8.15 8.16zm106.45 -48.54c-17.22,-17.21 -25.84,-35.41 -25.82,-54.6 0,-19.2 8.58,-37.35 25.72,-54.5 17.56,-17.56 35.81,-26.38 54.72,-26.47 18.94,-0.08 36.89,8.4 53.86,25.37 12.33,12.33 20.37,24.48 24.1,36.52 3.73,12.03 3.86,24.19 0.42,36.42 -3.47,12.26 -11.06,24.22 -22.77,35.94 -11.89,11.88 -23.63,19.84 -35.22,23.87 -11.6,3.98 -23.93,4.32 -36.97,0.96 -13.01,-3.34 -25.71,-11.18 -38.04,-23.51zm32.64 -32.49c10.63,10.63 20.29,16.31 28.88,17 8.62,0.66 16.36,-2.41 23.19,-9.24 7,-7 10.17,-14.74 9.46,-23.11 -0.72,-8.43 -6.96,-18.5 -18.77,-30.31 -9.92,-9.92 -19.18,-15.16 -27.75,-15.72 -8.63,-0.56 -16.34,2.58 -23.21,9.46 -6.59,6.58 -9.56,14.22 -8.89,22.84 0.63,8.64 6.36,18.34 17.09,29.08z"/>
 </g>
</svg>
