<?xml version="1.0" encoding="UTF-8"?>
<!DOCTYPE svg PUBLIC "-//W3C//DTD SVG 1.1//EN" "http://www.w3.org/Graphics/SVG/1.1/DTD/svg11.dtd">
<!-- Creator: CorelDRAW 2018 (64 Bit) -->
<svg xmlns="http://www.w3.org/2000/svg" xml:space="preserve" width="47.7805mm" height="77.479mm" version="1.1" style="shape-rendering:geometricPrecision; text-rendering:geometricPrecision; image-rendering:optimizeQuality; fill-rule:evenodd; clip-rule:evenodd"
viewBox="0 0 1026.69 1664.84"
 xmlns:xlink="http://www.w3.org/1999/xlink">
 <defs>
  <style type="text/css">
   <![CDATA[
    .str2 {stroke:#E63C24;stroke-width:36.38;stroke-miterlimit:22.9256}
    .str1 {stroke:#1F1B20;stroke-width:7.28;stroke-miterlimit:4}
    .str0 {stroke:#1F1B20;stroke-width:7.58;stroke-miterlimit:4}
    .fil1 {fill:none}
    .fil0 {fill:none;fill-rule:nonzero}
   ]]>
  </style>
 </defs>
 <g id="Capa_x0020_1">
  <metadata id="CorelCorpID_0Corel-Layer"/>
  <path class="fil0 str0" d="M18.19 1436.93c278.48,298.82 711.82,298.82 990.3,0"/>
  <path class="fil1 str0" d="M1008.49 794.64c-18.23,-313 -254.7,-549.82 -528.16,-528.95 -273.47,20.87 -480.37,291.52 -462.14,604.51 18.23,312.99 254.7,549.82 528.16,528.95 273.47,-20.86 480.38,-291.52 462.14,-604.51z"/>
  <line class="fil1 str1" x1="1008.49" y1="227.91" x2="621.44" y2= "670.9" />
  <line class="fil1 str1" x1="18.19" y1="227.91" x2="405.24" y2= "670.9" />
  <line class="fil1 str1" x1="1008.49" y1="1436.93" x2="621.44" y2= "993.94" />
  <line class="fil1 str1" x1="18.19" y1="1436.93" x2="405.24" y2= "993.94" />
  <path class="fil1 str0" d="M678.39 756.86c-36.46,-104.34 -139.91,-155.08 -231.06,-113.35 -91.16,41.73 -135.49,160.14 -99.03,264.48 36.46,104.33 139.91,155.08 231.07,113.34 91.15,-41.73 135.49,-160.14 99.03,-264.47z"/>
  <path class="fil1 str0" d="M1008.49 227.91c-278.48,-298.82 -711.82,-298.82 -990.3,0"/>
  <rect class="fil1 str2" x="18.19" y="227.91" width="990.3" height="1209.03"/>
 </g>
</svg>
