<?xml version="1.0" encoding="UTF-8"?>
<!DOCTYPE svg PUBLIC "-//W3C//DTD SVG 1.0//EN" "https://www.w3.org/TR/2001/REC-SVG-20010904/DTD/svg10.dtd">
<!-- Creator: CorelDRAW 2018 (64 Bit) -->
<svg xmlns="https://www.w3.org/2000/svg" xml:space="preserve" width="172.525mm" height="70.0461mm" version="1.0" style="shape-rendering:geometricPrecision; text-rendering:geometricPrecision; image-rendering:optimizeQuality; fill-rule:evenodd; clip-rule:evenodd"
viewBox="0 0 17445.35 7082.92"
 xmlns:xlink="https://www.w3.org/1999/xlink">
 <defs>
  <style type="text/css">
   <![CDATA[
    .fil0 {fill:#373435;fill-rule:nonzero}
   ]]>
  </style>
 </defs>
 <g id="Capa_x0020_1">
  <metadata id="CorelCorpID_0Corel-Layer"/>
  <path class="fil0" d="M-0 0l1500.73 0c327.06,0 571.54,77.44 734.8,233.11 162.45,155.68 243.94,377.15 243.94,664.68 0,294.84 -89.07,526.06 -266.42,691.75 -177.33,166.51 -448.62,249.63 -812.77,249.63l-494.92 0 0 1080.54 -905.37 0 0 -2919.7zm905.37 1247.86l222.28 0c175.44,0 298.36,-30.6 369.03,-91.24 70.66,-60.38 106.12,-137.81 106.12,-232.3 0,-91.78 -30.59,-169.21 -92.59,-233.11 -61.19,-63.9 -176.52,-95.85 -346.55,-95.85l-258.29 0 0 652.49zm2056.02 1671.84l0 -2919.7 1503.44 0c278.59,0 491.94,23.55 638.68,72.02 147.56,47.38 266.42,136.46 356.85,265.6 90.43,129.96 135.37,288.35 135.37,474.34 0,161.91 -34.65,301.88 -103.96,419.39 -68.77,118.31 -163.8,213.61 -285.64,286.98 -76.62,46.03 -182.75,84.75 -316.5,115.34 107.22,36.01 185.46,71.48 234.46,107.49 32.49,23.82 80.68,75.54 144.03,153.52 62.54,78.23 104.52,138.89 125.63,181.67l438.34 843.36 -1019.35 0 -481.93 -890.47c-61.19,-115.34 -115.61,-190.06 -162.98,-224.72 -65.25,-44.94 -139.43,-67.42 -221.74,-67.42l-79.6 0 0 1182.61 -905.1 0zm905.1 -1733.03l381.48 0c40.61,0 121.03,-13.81 239.07,-40.07 59.83,-11.64 108.83,-42.24 146.2,-91.78 38.17,-49.81 57.13,-106.12 57.13,-170.02 0,-94.49 -29.79,-167.05 -89.62,-217.41 -59.83,-51.17 -171.92,-76.07 -337.08,-76.07l-397.18 0 0 595.36zm2291.3 -1186.67l905.37 0 0 2919.7 -905.37 0 0 -2919.7zm1542.16 0l1190.18 0 453.23 1776.62 454.85 -1776.62 1184.51 0 0 2919.7 -738.05 0 0 -2225.79 -569.65 2225.79 -668.73 0 -568.02 -2225.79 0 2225.79 -738.31 0 0 -2919.7zm3857.28 0l2413.95 0 0 623.8 -1508.85 0 0 464.86 1398.93 0 0 595.37 -1398.93 0 0 575.06 1553.8 0 0 660.61 -2458.9 0 0 -2919.7zm2957.06 2919.7l0 -2919.7 1503.43 0c278.6,0 491.95,23.55 638.69,72.02 147.55,47.38 266.41,136.46 356.84,265.6 90.43,129.96 135.38,288.35 135.38,474.34 0,161.91 -34.66,301.88 -103.97,419.39 -68.77,118.31 -163.8,213.61 -285.64,286.98 -76.62,46.03 -182.75,84.75 -316.5,115.34 107.22,36.01 185.46,71.48 234.47,107.49 32.49,23.82 80.67,75.54 144.03,153.52 62.54,78.23 104.51,138.89 125.62,181.67l438.34 843.36 -1019.35 0 -481.92 -890.47c-61.19,-115.34 -115.61,-190.06 -162.99,-224.72 -65.25,-44.94 -139.43,-67.42 -221.74,-67.42l-79.59 0 0 1182.61 -905.1 0zm905.1 -1733.03l381.48 0c40.61,0 121.02,-13.81 239.06,-40.07 59.83,-11.64 108.83,-42.24 146.2,-91.78 38.18,-49.81 57.13,-106.12 57.13,-170.02 0,-94.49 -29.78,-167.05 -89.62,-217.41 -59.83,-51.17 -171.92,-76.07 -337.07,-76.07l-397.18 0 0 595.36z"/>
  <path class="fil0" d="M2558.53 5531.56l986.86 297.55c-66.06,276.43 -170.29,507.92 -313.52,692.83 -142.41,185.46 -318.94,325.44 -530.93,419.65 -210.91,93.95 -479.76,141.33 -806,141.33 -396.92,0 -719.91,-57.39 -971.7,-171.92 -250.97,-115.34 -467.03,-317.85 -649.51,-607.01 -182.21,-289.15 -273.73,-660.61 -273.73,-1111.4 0,-602.14 160.28,-1064.83 480.85,-1388.92 321.1,-322.99 774.87,-484.9 1361.29,-484.9 458.64,0 819.81,92.59 1082.71,278.05 262.08,185.73 457.82,470.55 585.08,855.55l-992.01 219.58c-34.65,-110.2 -71.21,-190.88 -109.38,-241.51 -63.62,-85.82 -140.79,-151.89 -231.49,-197.65 -91.51,-46.56 -193.31,-69.58 -305.94,-69.58 -256.12,0 -451.87,102.61 -587.51,307.02 -102.61,151.62 -154.33,390.69 -154.33,715.58 0,403.4 60.91,679.02 183.83,829.02 123.19,149.18 295.11,223.91 517.39,223.91 215.24,0 377.96,-60.38 488.15,-181.41 110.2,-120.48 190.07,-295.92 239.88,-525.78zm3058.59 -2151.6l1129.28 0 0 3642.05 -1129.28 0 0 -3642.05zm3161.75 0l3423.28 0 0 900.22 -1149.58 0 0 2741.82 -1124.12 0 0 -2741.82 -1149.58 0 0 -900.22zm7306.01 3041.8l-1275.21 0 -183.02 600.25 -1148.76 0 1370.78 -3642.05 1231.88 0 1364.82 3642.05 -1178.28 0 -182.2 -600.25zm-238.25 -788.4l-397.73 -1309.05 -399.35 1309.05 797.07 0z"/>
 </g>
</svg>
